{
  "accessors": [
    {
      "bufferView": 2,
      "componentType": 5126,
      "count": 48,
      "max": [
        0.12680622935295105,
        0.16986873745918274,
        0.0028319358825683594
      ],
      "min": [
        -0.12680619955062866,
        -0.1698680818080902,
        -0.0028319358825683594
      ],
      "type": "VEC3"
    },
    {
      "bufferView": 2,
      "byteOffset": 576,
      "componentType": 5126,
      "count": 48,
      "max": [
        1.0,
        1.0,
        1.0
      ],
      "min": [
        -1.0,
        -1.0,
        -1.0
      ],
      "type": "VEC3"
    },
    {
      "bufferView": 1,
      "componentType": 5126,
      "count": 48,
      "max": [
        0.4209878146648407,
        0.19726568460464478
      ],
      "min": [
        0.26587292551994324,
        0.0534512996673584
      ],
      "type": "VEC2"
    },
    {
      "bufferView": 0,
      "componentType": 5125,
      "count": 72,
      "type": "SCALAR"
    },
    {
      "bufferView": 2,
      "byteOffset": 1152,
      "componentType": 5126,
      "count": 1153,
      "max": [
        0.9023053646087646,
        0.5269227623939514,
        0.7237486839294434
      ],
      "min": [
        -0.26577404141426086,
        -0.4502144753932953,
        -0.7198618054389954
      ],
      "type": "VEC3"
    },
    {
      "bufferView": 2,
      "byteOffset": 14988,
      "componentType": 5126,
      "count": 1153,
      "max": [
        1.0,
        1.0,
        1.0
      ],
      "min": [
        -1.0,
        -1.0,
        -1.0
      ],
      "type": "VEC3"
    },
    {
      "bufferView": 1,
      "byteOffset": 384,
      "componentType": 5126,
      "count": 1153,
      "max": [
        0.3351997137069702,
        0.9693599343299866
      ],
      "min": [
        0.011108111590147018,
        0.6671717166900635
      ],
      "type": "VEC2"
    },
    {
      "bufferView": 0,
      "byteOffset": 288,
      "componentType": 5125,
      "count": 1860,
      "type": "SCALAR"
    },
    {
      "bufferView": 2,
      "byteOffset": 28824,
      "componentType": 5126,
      "count": 6896,
      "max": [
        0.8515983819961548,
        0.3945047855377197,
        0.6964497566223145
      ],
      "min": [
        -0.25028377771377563,
        -0.7324827313423157,
        -0.8757617473602295
      ],
      "type": "VEC3"
    },
    {
      "bufferView": 2,
      "byteOffset": 111576,
      "componentType": 5126,
      "count": 6896,
      "max": [
        1.0,
        1.0,
        1.0
      ],
      "min": [
        -1.0,
        -1.0,
        -1.0
      ],
      "type": "VEC3"
    },
    {
      "bufferView": 1,
      "byteOffset": 9608,
      "componentType": 5126,
      "count": 6896,
      "max": [
        0.32976362109184265,
        0.610253095626831
      ],
      "min": [
        0.020146094262599945,
        0.3018304705619812
      ],
      "type": "VEC2"
    },
    {
      "bufferView": 1,
      "byteOffset": 64776,
      "componentType": 5126,
      "count": 6896,
      "max": [
        101.70587158203125,
        84.07371520996094
      ],
      "min": [
        -77.95039367675781,
        -100.70587158203125
      ],
      "type": "VEC2"
    },
    {
      "bufferView": 0,
      "byteOffset": 7728,
      "componentType": 5125,
      "count": 9597,
      "type": "SCALAR"
    },
    {
      "bufferView": 2,
      "byteOffset": 194328,
      "componentType": 5126,
      "count": 602,
      "max": [
        0.1986989825963974,
        0.20431804656982422,
        0.5415191650390625
      ],
      "min": [
        -0.49605369567871094,
        -0.6670432090759277,
        -0.1939070224761963
      ],
      "type": "VEC3"
    },
    {
      "bufferView": 2,
      "byteOffset": 201552,
      "componentType": 5126,
      "count": 602,
      "max": [
        1.0,
        1.0,
        1.0
      ],
      "min": [
        -1.0,
        -1.0,
        -1.0
      ],
      "type": "VEC3"
    },
    {
      "bufferView": 1,
      "byteOffset": 119944,
      "componentType": 5126,
      "count": 602,
      "max": [
        0.3165896534919739,
        0.9599758386611938
      ],
      "min": [
        0.019673705101013184,
        0.7002739906311035
      ],
      "type": "VEC2"
    },
    {
      "bufferView": 0,
      "byteOffset": 46116,
      "componentType": 5125,
      "count": 834,
      "type": "SCALAR"
    },
    {
      "bufferView": 2,
      "byteOffset": 208776,
      "componentType": 5126,
      "count": 7162,
      "max": [
        1.1033806800842285,
        0.6042349338531494,
        0.39653968811035156
      ],
      "min": [
        -0.39197778701782227,
        -0.43784913420677185,
        -0.9416766166687012
      ],
      "type": "VEC3"
    },
    {
      "bufferView": 2,
      "byteOffset": 294720,
      "componentType": 5126,
      "count": 7162,
      "max": [
        1.0,
        1.0,
        1.0
      ],
      "min": [
        -1.0,
        -1.0,
        -1.0
      ],
      "type": "VEC3"
    },
    {
      "bufferView": 1,
      "byteOffset": 124760,
      "componentType": 5126,
      "count": 7162,
      "max": [
        0.4996846616268158,
        0.2714434266090393
      ],
      "min": [
        0.2115364968776703,
        0.014862000942230225
      ],
      "type": "VEC2"
    },
    {
      "bufferView": 0,
      "byteOffset": 49452,
      "componentType": 5125,
      "count": 10368,
      "type": "SCALAR"
    },
    {
      "bufferView": 2,
      "byteOffset": 380664,
      "componentType": 5126,
      "count": 47818,
      "max": [
        0.8092142343521118,
        0.5934290289878845,
        0.753082275390625
      ],
      "min": [
        -0.3213539719581604,
        -0.6460685729980469,
        -0.7002966403961182
      ],
      "type": "VEC3"
    },
    {
      "bufferView": 2,
      "byteOffset": 954480,
      "componentType": 5126,
      "count": 47818,
      "max": [
        1.0,
        1.0,
        1.0
      ],
      "min": [
        -1.0,
        -1.0,
        -1.0
      ],
      "type": "VEC3"
    },
    {
      "bufferView": 1,
      "byteOffset": 182056,
      "componentType": 5126,
      "count": 47818,
      "max": [
        0.9894008040428162,
        0.5140156149864197
      ],
      "min": [
        0.7931651473045349,
        0.33949708938598633
      ],
      "type": "VEC2"
    },
    {
      "bufferView": 1,
      "byteOffset": 564600,
      "componentType": 5126,
      "count": 47818,
      "max": [
        94.07408142089844,
        84.88369750976563
      ],
      "min": [
        -83.88489532470703,
        -81.19239807128906
      ],
      "type": "VEC2"
    },
    {
      "bufferView": 0,
      "byteOffset": 90924,
      "componentType": 5125,
      "count": 71394,
      "type": "SCALAR"
    },
    {
      "bufferView": 2,
      "byteOffset": 1528296,
      "componentType": 5126,
      "count": 65533,
      "max": [
        0.3993229866027832,
        0.655659556388855,
        1.0323240756988525
      ],
      "min": [
        -1.2378108501434326,
        -0.47244882583618164,
        -0.44949841499328613
      ],
      "type": "VEC3"
    },
    {
      "bufferView": 2,
      "byteOffset": 2314692,
      "componentType": 5126,
      "count": 65533,
      "max": [
        0.9999958276748657,
        0.9999960660934448,
        1.0
      ],
      "min": [
        -0.9999958276748657,
        -0.9999960660934448,
        -0.9992848634719849
      ],
      "type": "VEC3"
    },
    {
      "bufferView": 1,
      "byteOffset": 947144,
      "componentType": 5126,
      "count": 65533,
      "max": [
        0.7443021535873413,
        0.9764226078987122
      ],
      "min": [
        0.3784729838371277,
        0.6300906538963318
      ],
      "type": "VEC2"
    },
    {
      "bufferView": 1,
      "byteOffset": 1471408,
      "componentType": 5126,
      "count": 65533,
      "max": [
        17.56646728515625,
        39.624420166015625
      ],
      "min": [
        -46.58018112182617,
        -24.45378303527832
      ],
      "type": "VEC2"
    },
    {
      "bufferView": 0,
      "byteOffset": 376500,
      "componentType": 5125,
      "count": 79680,
      "type": "SCALAR"
    },
    {
      "bufferView": 2,
      "byteOffset": 3101088,
      "componentType": 5126,
      "count": 65533,
      "max": [
        0.3993229866027832,
        0.6638076305389404,
        1.0368068218231201
      ],
      "min": [
        -1.2378108501434326,
        -0.47244882583618164,
        -0.44949841499328613
      ],
      "type": "VEC3"
    },
    {
      "bufferView": 2,
      "byteOffset": 3887484,
      "componentType": 5126,
      "count": 65533,
      "max": [
        0.9999924898147583,
        1.0,
        1.0
      ],
      "min": [
        -0.9999819993972778,
        -1.0,
        -1.0
      ],
      "type": "VEC3"
    },
    {
      "bufferView": 1,
      "byteOffset": 1995672,
      "componentType": 5126,
      "count": 65533,
      "max": [
        0.7440983653068542,
        0.9764226078987122
      ],
      "min": [
        0.37846606969833374,
        0.6354636549949646
      ],
      "type": "VEC2"
    },
    {
      "bufferView": 1,
      "byteOffset": 2519936,
      "componentType": 5126,
      "count": 65533,
      "max": [
        17.563724517822266,
        39.624420166015625
      ],
      "min": [
        -46.58351135253906,
        -24.764142990112305
      ],
      "type": "VEC2"
    },
    {
      "bufferView": 0,
      "byteOffset": 695220,
      "componentType": 5125,
      "count": 78981,
      "type": "SCALAR"
    },
    {
      "bufferView": 2,
      "byteOffset": 4673880,
      "componentType": 5126,
      "count": 63278,
      "max": [
        0.3993229866027832,
        0.6630878448486328,
        1.0368068218231201
      ],
      "min": [
        -1.2378108501434326,
        -0.47244876623153687,
        -0.44949841499328613
      ],
      "type": "VEC3"
    },
    {
      "bufferView": 2,
      "byteOffset": 5433216,
      "componentType": 5126,
      "count": 63278,
      "max": [
        0.9999958276748657,
        0.9999960660934448,
        0.9995934367179871
      ],
      "min": [
        -0.999998927116394,
        -0.9999960660934448,
        -0.998784601688385
      ],
      "type": "VEC3"
    },
    {
      "bufferView": 1,
      "byteOffset": 3044200,
      "componentType": 5126,
      "count": 63278,
      "max": [
        0.7442939281463623,
        0.9764226078987122
      ],
      "min": [
        0.37846606969833374,
        0.6341153979301453
      ],
      "type": "VEC2"
    },
    {
      "bufferView": 1,
      "byteOffset": 3550424,
      "componentType": 5126,
      "count": 63278,
      "max": [
        17.563724517822266,
        39.36048126220703
      ],
      "min": [
        -46.58351135253906,
        -24.736726760864258
      ],
      "type": "VEC2"
    },
    {
      "bufferView": 0,
      "byteOffset": 1011144,
      "componentType": 5125,
      "count": 76311,
      "type": "SCALAR"
    },
    {
      "bufferView": 2,
      "byteOffset": 6192552,
      "componentType": 5126,
      "count": 5717,
      "max": [
        0.13122326135635376,
        0.030647456645965576,
        0.06858968734741211
      ],
      "min": [
        -0.11592203378677368,
        -0.0144442617893219,
        -0.08494305610656738
      ],
      "type": "VEC3"
    },
    {
      "bufferView": 2,
      "byteOffset": 6261156,
      "componentType": 5126,
      "count": 5717,
      "max": [
        0.9690194725990295,
        0.958581805229187,
        0.9689250588417053
      ],
      "min": [
        -0.9691009521484375,
        -0.9585433006286621,
        -0.9689068794250488
      ],
      "type": "VEC3"
    },
    {
      "bufferView": 1,
      "byteOffset": 4056648,
      "componentType": 5126,
      "count": 5717,
      "max": [
        0.9910982847213745,
        0.7514055371284485
      ],
      "min": [
        0.7983027696609497,
        0.5604000091552734
      ],
      "type": "VEC2"
    },
    {
      "bufferView": 0,
      "byteOffset": 1316388,
      "componentType": 5125,
      "count": 6480,
      "type": "SCALAR"
    },
    {
      "bufferView": 2,
      "byteOffset": 6329760,
      "componentType": 5126,
      "count": 346,
      "max": [
        -0.01882147043943405,
        0.03857487440109253,
        0.0407252311706543
      ],
      "min": [
        -0.10790988057851791,
        -0.02782261371612549,
        0.01802539825439453
      ],
      "type": "VEC3"
    },
    {
      "bufferView": 2,
      "byteOffset": 6333912,
      "componentType": 5126,
      "count": 346,
      "max": [
        0.9620392918586731,
        1.0,
        1.0
      ],
      "min": [
        -0.9618403911590576,
        -1.0,
        -1.0
      ],
      "type": "VEC3"
    },
    {
      "bufferView": 1,
      "byteOffset": 4102384,
      "componentType": 5126,
      "count": 346,
      "max": [
        0.09550392627716064,
        0.6015589237213135
      ],
      "min": [
        0.040900640189647675,
        0.5544741153717041
      ],
      "type": "VEC2"
    },
    {
      "bufferView": 0,
      "byteOffset": 1342308,
      "componentType": 5125,
      "count": 648,
      "type": "SCALAR"
    },
    {
      "bufferView": 2,
      "byteOffset": 6338064,
      "componentType": 5126,
      "count": 48,
      "max": [
        0.2133742868900299,
        0.23457872867584229,
        0.6430950164794922
      ],
      "min": [
        -0.25114887952804565,
        -0.2392747402191162,
        -0.6431841850280762
      ],
      "type": "VEC3"
    },
    {
      "bufferView": 2,
      "byteOffset": 6338640,
      "componentType": 5126,
      "count": 48,
      "max": [
        0.9862095713615417,
        0.2626943290233612,
        1.0
      ],
      "min": [
        0.0,
        -0.0,
        0.0
      ],
      "type": "VEC3"
    },
    {
      "bufferView": 1,
      "byteOffset": 4105152,
      "componentType": 5126,
      "count": 48,
      "max": [
        0.743797779083252,
        0.9631942510604858
      ],
      "min": [
        0.04592639207839966,
        0.03680545091629028
      ],
      "type": "VEC2"
    },
    {
      "bufferView": 0,
      "byteOffset": 1344900,
      "componentType": 5125,
      "count": 96,
      "type": "SCALAR"
    },
    {
      "bufferView": 2,
      "byteOffset": 6339216,
      "componentType": 5126,
      "count": 866,
      "max": [
        0.13374724984169006,
        0.17286598682403564,
        0.006605625152587891
      ],
      "min": [
        -0.1337454617023468,
        -0.17409808933734894,
        -0.004801750183105469
      ],
      "type": "VEC3"
    },
    {
      "bufferView": 2,
      "byteOffset": 6349608,
      "componentType": 5126,
      "count": 866,
      "max": [
        1.0,
        1.0,
        1.0
      ],
      "min": [
        -1.0,
        -1.0,
        -1.0
      ],
      "type": "VEC3"
    },
    {
      "bufferView": 1,
      "byteOffset": 4105536,
      "componentType": 5126,
      "count": 866,
      "max": [
        0.14018511772155762,
        0.5606292486190796
      ],
      "min": [
        0.06623321771621704,
        0.4675397276878357
      ],
      "type": "VEC2"
    },
    {
      "bufferView": 0,
      "byteOffset": 1345284,
      "componentType": 5125,
      "count": 1896,
      "type": "SCALAR"
    },
    {
      "bufferView": 2,
      "byteOffset": 6360000,
      "componentType": 5126,
      "count": 576,
      "max": [
        0.05355062708258629,
        0.1297314465045929,
        0.5126233100891113
      ],
      "min": [
        -0.053551219403743744,
        -0.1693449318408966,
        -0.5126221179962158
      ],
      "type": "VEC3"
    },
    {
      "bufferView": 2,
      "byteOffset": 6366912,
      "componentType": 5126,
      "count": 576,
      "max": [
        1.0,
        1.0,
        0.9334461092948914
      ],
      "min": [
        -1.0,
        -1.0,
        -0.9334461092948914
      ],
      "type": "VEC3"
    },
    {
      "bufferView": 1,
      "byteOffset": 4112464,
      "componentType": 5126,
      "count": 576,
      "max": [
        0.280373752117157,
        0.5425435900688171
      ],
      "min": [
        0.09097099304199219,
        0.34302741289138794
      ],
      "type": "VEC2"
    },
    {
      "bufferView": 0,
      "byteOffset": 1352868,
      "componentType": 5125,
      "count": 864,
      "type": "SCALAR"
    },
    {
      "bufferView": 2,
      "byteOffset": 6373824,
      "componentType": 5126,
      "count": 4,
      "max": [
        0.08254086226224899,
        0.05177551880478859,
        0.03424729034304619
      ],
      "min": [
        -0.03855259716510773,
        -0.04954001307487488,
        -0.08684440702199936
      ],
      "type": "VEC3"
    },
    {
      "bufferView": 2,
      "byteOffset": 6373872,
      "componentType": 5126,
      "count": 4,
      "max": [
        0.6893978118896484,
        0.2223992794752121,
        0.6893978118896484
      ],
      "min": [
        0.6893978118896484,
        0.2223992794752121,
        0.6893978118896484
      ],
      "type": "VEC3"
    },
    {
      "bufferView": 1,
      "byteOffset": 4117072,
      "componentType": 5126,
      "count": 4,
      "max": [
        0.7014529705047607,
        1.0
      ],
      "min": [
        2.8820531738915633e-08,
        0.0
      ],
      "type": "VEC2"
    },
    {
      "bufferView": 0,
      "byteOffset": 1356324,
      "componentType": 5125,
      "count": 6,
      "type": "SCALAR"
    },
    {
      "bufferView": 2,
      "byteOffset": 6373920,
      "componentType": 5126,
      "count": 9768,
      "max": [
        0.009978555142879486,
        0.07041702419519424,
        0.074308842420578
      ],
      "min": [
        -0.007425807416439056,
        -0.06992974132299423,
        -0.07268479466438293
      ],
      "type": "VEC3"
    },
    {
      "bufferView": 2,
      "byteOffset": 6491136,
      "componentType": 5126,
      "count": 9768,
      "max": [
        0.9961574077606201,
        0.9928685426712036,
        0.9919212460517883
      ],
      "min": [
        -0.9964094161987305,
        -0.9929513335227966,
        -0.9919212460517883
      ],
      "type": "VEC3"
    },
    {
      "bufferView": 1,
      "byteOffset": 4117104,
      "componentType": 5126,
      "count": 9768,
      "max": [
        0.6846028566360474,
        0.9380476474761963
      ],
      "min": [
        0.6596088409423828,
        0.9128116369247437
      ],
      "type": "VEC2"
    },
    {
      "bufferView": 0,
      "byteOffset": 1356348,
      "componentType": 5125,
      "count": 11520,
      "type": "SCALAR"
    },
    {
      "bufferView": 2,
      "byteOffset": 6608352,
      "componentType": 5126,
      "count": 1006,
      "max": [
        0.004185914993286133,
        0.06255684047937393,
        0.06459414958953857
      ],
      "min": [
        -0.039422981441020966,
        -0.062069617211818695,
        -0.06593954563140869
      ],
      "type": "VEC3"
    },
    {
      "bufferView": 2,
      "byteOffset": 6620424,
      "componentType": 5126,
      "count": 1006,
      "max": [
        1.0,
        0.9999814033508301,
        0.9844077825546265
      ],
      "min": [
        -1.0,
        -0.9999819993972778,
        -0.9844251871109009
      ],
      "type": "VEC3"
    },
    {
      "bufferView": 1,
      "byteOffset": 4195248,
      "componentType": 5126,
      "count": 1006,
      "max": [
        0.0923856794834137,
        0.6083172559738159
      ],
      "min": [
        0.040900640189647675,
        0.5610796213150024
      ],
      "type": "VEC2"
    },
    {
      "bufferView": 0,
      "byteOffset": 1402428,
      "componentType": 5125,
      "count": 1320,
      "type": "SCALAR"
    },
    {
      "bufferView": 2,
      "byteOffset": 6632496,
      "componentType": 5126,
      "count": 659,
      "max": [
        -0.11258865892887115,
        0.3153161406517029,
        0.11715984344482422
      ],
      "min": [
        -0.12786734104156494,
        0.2567583918571472,
        0.05581855773925781
      ],
      "type": "VEC3"
    },
    {
      "bufferView": 2,
      "byteOffset": 6640404,
      "componentType": 5126,
      "count": 659,
      "max": [
        1.0,
        0.9965747594833374,
        0.9957594275474548
      ],
      "min": [
        -1.0,
        -0.9965747594833374,
        -0.9957685470581055
      ],
      "type": "VEC3"
    },
    {
      "bufferView": 1,
      "byteOffset": 4203296,
      "componentType": 5126,
      "count": 659,
      "max": [
        0.9591791033744812,
        0.406252384185791
      ],
      "min": [
        0.8480772376060486,
        0.3495146632194519
      ],
      "type": "VEC2"
    },
    {
      "bufferView": 1,
      "byteOffset": 4208568,
      "componentType": 5126,
      "count": 659,
      "max": [
        -4.208720684051514,
        11.398239135742188
      ],
      "min": [
        -12.999547004699707,
        -37.133914947509766
      ],
      "type": "VEC2"
    },
    {
      "bufferView": 0,
      "byteOffset": 1407708,
      "componentType": 5125,
      "count": 1080,
      "type": "SCALAR"
    },
    {
      "bufferView": 2,
      "byteOffset": 6648312,
      "componentType": 5126,
      "count": 643,
      "max": [
        -0.17570631206035614,
        0.323577344417572,
        0.12898731231689453
      ],
      "min": [
        -0.21793776750564575,
        0.2832639217376709,
        0.11846923828125
      ],
      "type": "VEC3"
    },
    {
      "bufferView": 2,
      "byteOffset": 6656028,
      "componentType": 5126,
      "count": 643,
      "max": [
        0.9957401752471924,
        0.9966076016426086,
        1.0
      ],
      "min": [
        -0.9957401752471924,
        -0.9966076016426086,
        -1.0
      ],
      "type": "VEC3"
    },
    {
      "bufferView": 1,
      "byteOffset": 4213840,
      "componentType": 5126,
      "count": 643,
      "max": [
        0.9078204035758972,
        0.37483519315719604
      ],
      "min": [
        0.8282788395881653,
        0.35208362340927124
      ],
      "type": "VEC2"
    },
    {
      "bufferView": 1,
      "byteOffset": 4218984,
      "componentType": 5126,
      "count": 643,
      "max": [
        -11.36780071258545,
        13.395064353942871
      ],
      "min": [
        -23.2918758392334,
        -38.077919006347656
      ],
      "type": "VEC2"
    },
    {
      "bufferView": 0,
      "byteOffset": 1412028,
      "componentType": 5125,
      "count": 1080,
      "type": "SCALAR"
    },
    {
      "bufferView": 2,
      "byteOffset": 6663744,
      "componentType": 5126,
      "count": 1001,
      "max": [
        -0.06267325580120087,
        0.23638665676116943,
        0.08206796646118164
      ],
      "min": [
        -0.1537771224975586,
        0.0037587881088256836,
        -0.028128623962402344
      ],
      "type": "VEC3"
    },
    {
      "bufferView": 2,
      "byteOffset": 6675756,
      "componentType": 5126,
      "count": 1001,
      "max": [
        1.0,
        1.0,
        1.0
      ],
      "min": [
        -1.0,
        -1.0,
        -1.0
      ],
      "type": "VEC3"
    },
    {
      "bufferView": 1,
      "byteOffset": 4224128,
      "componentType": 5126,
      "count": 1001,
      "max": [
        0.3138023018836975,
        0.5805597305297852
      ],
      "min": [
        0.04981640726327896,
        0.3199845552444458
      ],
      "type": "VEC2"
    },
    {
      "bufferView": 1,
      "byteOffset": 4232136,
      "componentType": 5126,
      "count": 1001,
      "max": [
        4.809636116027832,
        8.69979190826416
      ],
      "min": [
        -17.304597854614258,
        -26.63877296447754
      ],
      "type": "VEC2"
    },
    {
      "bufferView": 0,
      "byteOffset": 1416348,
      "componentType": 5125,
      "count": 1776,
      "type": "SCALAR"
    },
    {
      "bufferView": 2,
      "byteOffset": 6687768,
      "componentType": 5126,
      "count": 2484,
      "max": [
        -0.13241174817085266,
        0.227322518825531,
        0.1087636947631836
      ],
      "min": [
        -0.21651868522167206,
        0.1787170171737671,
        0.02464914321899414
      ],
      "type": "VEC3"
    },
    {
      "bufferView": 2,
      "byteOffset": 6717576,
      "componentType": 5126,
      "count": 2484,
      "max": [
        0.9962608814239502,
        1.0,
        0.9961378574371338
      ],
      "min": [
        -0.9962682723999023,
        -1.0,
        -0.9961378574371338
      ],
      "type": "VEC3"
    },
    {
      "bufferView": 1,
      "byteOffset": 4240144,
      "componentType": 5126,
      "count": 2484,
      "max": [
        0.9594104886054993,
        0.4062553644180298
      ],
      "min": [
        0.8099565505981445,
        0.34676802158355713
      ],
      "type": "VEC2"
    },
    {
      "bufferView": 1,
      "byteOffset": 4260016,
      "componentType": 5126,
      "count": 2484,
      "max": [
        -1.7714147567749023,
        11.258749961853027
      ],
      "min": [
        -23.129716873168945,
        -27.078903198242188
      ],
      "type": "VEC2"
    },
    {
      "bufferView": 0,
      "byteOffset": 1423452,
      "componentType": 5125,
      "count": 3240,
      "type": "SCALAR"
    },
    {
      "bufferView": 2,
      "byteOffset": 6747384,
      "componentType": 5126,
      "count": 2381,
      "max": [
        -0.15232165157794952,
        0.5321416258811951,
        0.0888528823852539
      ],
      "min": [
        -0.19660885632038116,
        0.44316595792770386,
        0.04456043243408203
      ],
      "type": "VEC3"
    },
    {
      "bufferView": 2,
      "byteOffset": 6775956,
      "componentType": 5126,
      "count": 2381,
      "max": [
        0.9962428212165833,
        1.0,
        0.9961560964584351
      ],
      "min": [
        -0.9963123798370361,
        -1.0,
        -0.9961560964584351
      ],
      "type": "VEC3"
    },
    {
      "bufferView": 1,
      "byteOffset": 4279888,
      "componentType": 5126,
      "count": 2381,
      "max": [
        0.9639490246772766,
        0.41200143098831177
      ],
      "min": [
        0.8327628374099731,
        0.34253257513046265
      ],
      "type": "VEC2"
    },
    {
      "bufferView": 1,
      "byteOffset": 4298936,
      "componentType": 5126,
      "count": 2381,
      "max": [
        -3.51432466506958,
        8.983546257019043
      ],
      "min": [
        -20.854066848754883,
        -61.91051483154297
      ],
      "type": "VEC2"
    },
    {
      "bufferView": 0,
      "byteOffset": 1436412,
      "componentType": 5125,
      "count": 3240,
      "type": "SCALAR"
    },
    {
      "bufferView": 2,
      "byteOffset": 6804528,
      "componentType": 5126,
      "count": 288,
      "max": [
        1.0,
        1.8930870294570923,
        1.0
      ],
      "min": [
        -1.0,
        -1.0,
        -1.0
      ],
      "type": "VEC3"
    },
    {
      "bufferView": 2,
      "byteOffset": 6807984,
      "componentType": 5126,
      "count": 288,
      "max": [
        0.9951865673065186,
        1.0,
        0.9951865673065186
      ],
      "min": [
        -0.9951865673065186,
        -1.0,
        -0.9951865673065186
      ],
      "type": "VEC3"
    },
    {
      "bufferView": 1,
      "byteOffset": 4317984,
      "componentType": 5126,
      "count": 288,
      "max": [
        1.0,
        0.9900000095367432
      ],
      "min": [
        0.0,
        0.0
      ],
      "type": "VEC2"
    },
    {
      "bufferView": 0,
      "byteOffset": 1449372,
      "componentType": 5125,
      "count": 468,
      "type": "SCALAR"
    },
    {
      "bufferView": 2,
      "byteOffset": 6811440,
      "componentType": 5126,
      "count": 802,
      "max": [
        -0.13647231459617615,
        0.3784340023994446,
        0.12893199920654297
      ],
      "min": [
        -0.1419067233800888,
        0.37324196100234985,
        0.10530662536621094
      ],
      "type": "VEC3"
    },
    {
      "bufferView": 2,
      "byteOffset": 6821064,
      "componentType": 5126,
      "count": 802,
      "max": [
        0.9957959651947021,
        0.9962428212165833,
        0.9999946355819702
      ],
      "min": [
        -0.9958875179290771,
        -0.9962781071662903,
        -0.9999940395355225
      ],
      "type": "VEC3"
    },
    {
      "bufferView": 1,
      "byteOffset": 4320288,
      "componentType": 5126,
      "count": 802,
      "max": [
        0.9661273956298828,
        0.41200125217437744
      ],
      "min": [
        0.8006135821342468,
        0.3487131595611572
      ],
      "type": "VEC2"
    },
    {
      "bufferView": 1,
      "byteOffset": 4326704,
      "componentType": 5126,
      "count": 802,
      "max": [
        -9.8637113571167,
        13.563051223754883
      ],
      "min": [
        -14.603822708129883,
        -44.346378326416016
      ],
      "type": "VEC2"
    },
    {
      "bufferView": 0,
      "byteOffset": 1451244,
      "componentType": 5125,
      "count": 1080,
      "type": "SCALAR"
    },
    {
      "bufferView": 2,
      "byteOffset": 6830688,
      "componentType": 5126,
      "count": 485,
      "max": [
        -0.1297176480293274,
        0.3864433169364929,
        0.1433173418045044
      ],
      "min": [
        -0.14866143465042114,
        0.3652326464653015,
        0.12675774097442627
      ],
      "type": "VEC3"
    },
    {
      "bufferView": 2,
      "byteOffset": 6836508,
      "componentType": 5126,
      "count": 485,
      "max": [
        1.0,
        0.9818219542503357,
        0.9999996423721313
      ],
      "min": [
        -1.0,
        -0.9817473292350769,
        -0.9999997615814209
      ],
      "type": "VEC3"
    },
    {
      "bufferView": 1,
      "byteOffset": 4333120,
      "componentType": 5126,
      "count": 485,
      "max": [
        0.676977276802063,
        0.9333933591842651
      ],
      "min": [
        0.6616294384002686,
        0.9153763651847839
      ],
      "type": "VEC2"
    },
    {
      "bufferView": 1,
      "byteOffset": 4337000,
      "componentType": 5126,
      "count": 485,
      "max": [
        0.0,
        1.0
      ],
      "min": [
        0.0,
        1.0
      ],
      "type": "VEC2"
    },
    {
      "bufferView": 0,
      "byteOffset": 1455564,
      "componentType": 5125,
      "count": 624,
      "type": "SCALAR"
    },
    {
      "bufferView": 2,
      "byteOffset": 6842328,
      "componentType": 5126,
      "count": 848,
      "max": [
        -0.13260702788829803,
        0.44278544187545776,
        0.1085653305053711
      ],
      "min": [
        -0.21631814539432526,
        0.4372953772544861,
        0.02484750747680664
      ],
      "type": "VEC3"
    },
    {
      "bufferView": 2,
      "byteOffset": 6852504,
      "componentType": 5126,
      "count": 848,
      "max": [
        0.9962377548217773,
        1.0,
        0.9961378574371338
      ],
      "min": [
        -0.9962685108184814,
        -1.0,
        -0.9961378574371338
      ],
      "type": "VEC3"
    },
    {
      "bufferView": 1,
      "byteOffset": 4340880,
      "componentType": 5126,
      "count": 848,
      "max": [
        0.9502546191215515,
        0.4062545895576477
      ],
      "min": [
        0.8017140030860901,
        0.345462441444397
      ],
      "type": "VEC2"
    },
    {
      "bufferView": 1,
      "byteOffset": 4347664,
      "componentType": 5126,
      "count": 848,
      "max": [
        -1.7887418270111084,
        11.236083030700684
      ],
      "min": [
        -23.106801986694336,
        -51.457794189453125
      ],
      "type": "VEC2"
    },
    {
      "bufferView": 0,
      "byteOffset": 1458060,
      "componentType": 5125,
      "count": 1080,
      "type": "SCALAR"
    },
    {
      "bufferView": 2,
      "byteOffset": 6862680,
      "componentType": 5126,
      "count": 1049,
      "max": [
        -0.06267324090003967,
        0.1270383596420288,
        0.08837604522705078
      ],
      "min": [
        -0.1600540727376938,
        0.04036068916320801,
        -0.01778411865234375
      ],
      "type": "VEC3"
    },
    {
      "bufferView": 2,
      "byteOffset": 6875268,
      "componentType": 5126,
      "count": 1049,
      "max": [
        1.0,
        1.0,
        1.0
      ],
      "min": [
        -1.0,
        -1.0,
        -1.0
      ],
      "type": "VEC3"
    },
    {
      "bufferView": 1,
      "byteOffset": 4354448,
      "componentType": 5126,
      "count": 1049,
      "max": [
        0.30371570587158203,
        0.5805599093437195
      ],
      "min": [
        0.027627162635326385,
        0.31869930028915405
      ],
      "type": "VEC2"
    },
    {
      "bufferView": 1,
      "byteOffset": 4362840,
      "componentType": 5126,
      "count": 1049,
      "max": [
        3.6649506092071533,
        9.420668601989746
      ],
      "min": [
        -18.021860122680664,
        -14.143567085266113
      ],
      "type": "VEC2"
    },
    {
      "bufferView": 0,
      "byteOffset": 1462380,
      "componentType": 5125,
      "count": 1800,
      "type": "SCALAR"
    },
    {
      "bufferView": 2,
      "byteOffset": 6887856,
      "componentType": 5126,
      "count": 453,
      "max": [
        -0.03653289005160332,
        0.15636098384857178,
        -0.01778411865234375
      ],
      "min": [
        -0.17999491095542908,
        0.019407153129577637,
        -0.030841827392578125
      ],
      "type": "VEC3"
    },
    {
      "bufferView": 2,
      "byteOffset": 6893292,
      "componentType": 5126,
      "count": 453,
      "max": [
        0.9857024550437927,
        0.98740553855896,
        1.0
      ],
      "min": [
        -0.9857175946235657,
        -0.9873629212379456,
        -1.0
      ],
      "type": "VEC3"
    },
    {
      "bufferView": 1,
      "byteOffset": 4371232,
      "componentType": 5126,
      "count": 453,
      "max": [
        0.23991069197654724,
        0.41451942920684814
      ],
      "min": [
        0.029825784265995026,
        0.3161481022834778
      ],
      "type": "VEC2"
    },
    {
      "bufferView": 1,
      "byteOffset": 4374856,
      "componentType": 5126,
      "count": 453,
      "max": [
        5.157052040100098,
        -1.8445720672607422
      ],
      "min": [
        -20.300498962402344,
        -17.4942569732666
      ],
      "type": "VEC2"
    },
    {
      "bufferView": 0,
      "byteOffset": 1469580,
      "componentType": 5125,
      "count": 648,
      "type": "SCALAR"
    },
    {
      "bufferView": 3,
      "componentType": 5126,
      "count": 132,
      "max": [
        6.666666507720947
      ],
      "min": [
        0.0416666679084301
      ],
      "type": "SCALAR"
    },
    {
      "bufferView": 5,
      "componentType": 5126,
      "count": 132,
      "max": [
        0.0,
        3.547511435083416e-24,
        2.1312127164438486e-16,
        1.0
      ],
      "min": [
        -0.9961835741996765,
        -1.8726404575303387e-23,
        -0.0,
        0.08728325366973877
      ],
      "type": "VEC4"
    },
    {
      "bufferView": 3,
      "byteOffset": 528,
      "componentType": 5126,
      "count": 114,
      "max": [
        6.666666507720947
      ],
      "min": [
        0.0416666679084301
      ],
      "type": "SCALAR"
    },
    {
      "bufferView": 4,
      "componentType": 5126,
      "count": 114,
      "max": [
        8.66891860961914,
        97.27202606201172,
        8.90826416015625
      ],
      "min": [
        8.66891860961914,
        92.77880859375,
        8.90826416015625
      ],
      "type": "VEC3"
    },
    {
      "bufferView": 3,
      "byteOffset": 984,
      "componentType": 5126,
      "count": 21,
      "max": [
        4.166666507720947
      ],
      "min": [
        2.1666667461395264
      ],
      "type": "SCALAR"
    },
    {
      "bufferView": 4,
      "byteOffset": 1368,
      "componentType": 5126,
      "count": 21,
      "max": [
        0.06554338335990906,
        -0.20068252086639404,
        -0.037303533405065536
      ],
      "min": [
        0.06554338335990906,
        -0.21888673305511475,
        -0.037303533405065536
      ],
      "type": "VEC3"
    },
    {
      "bufferView": 3,
      "byteOffset": 1068,
      "componentType": 5126,
      "count": 22,
      "max": [
        3.75
      ],
      "min": [
        2.875
      ],
      "type": "SCALAR"
    },
    {
      "bufferView": 4,
      "byteOffset": 1620,
      "componentType": 5126,
      "count": 22,
      "max": [
        -0.17425711452960968,
        0.18987047672271729,
        0.0668339729309082
      ],
      "min": [
        -0.17425711452960968,
        0.1114388108253479,
        0.0668339729309082
      ],
      "type": "VEC3"
    }
  ],
  "animations": [
    {
      "channels": [
        {
          "sampler": 0,
          "target": {
            "node": 31,
            "path": "rotation"
          }
        }
      ],
      "name": "Wheel",
      "samplers": [
        {
          "input": 127,
          "interpolation": "LINEAR",
          "output": 128
        }
      ]
    },
    {
      "channels": [
        {
          "sampler": 0,
          "target": {
            "node": 38,
            "path": "translation"
          }
        }
      ],
      "name": "Vice",
      "samplers": [
        {
          "input": 129,
          "interpolation": "LINEAR",
          "output": 130
        }
      ]
    },
    {
      "channels": [
        {
          "sampler": 0,
          "target": {
            "node": 40,
            "path": "translation"
          }
        }
      ],
      "name": "Holder",
      "samplers": [
        {
          "input": 131,
          "interpolation": "LINEAR",
          "output": 132
        }
      ]
    },
    {
      "channels": [
        {
          "sampler": 0,
          "target": {
            "node": 44,
            "path": "translation"
          }
        }
      ],
      "name": "Spindle",
      "samplers": [
        {
          "input": 133,
          "interpolation": "LINEAR",
          "output": 134
        }
      ]
    }
  ],
  "asset": {
    "extras": {
      "author": "Ranjith (https://sketchfab.com/sivaprakasamranjith)",
      "license": "CC-BY-4.0 (http://creativecommons.org/licenses/by/4.0/)",
      "source": "https://sketchfab.com/3d-models/cnc-meachine-50a0040a7ef449bd9990c7795aab84f6",
      "title": "CNC_Meachine"
    },
    "generator": "Sketchfab-16.0.0",
    "version": "2.0"
  },
  "bufferViews": [
    {
      "buffer": 0,
      "byteLength": 1472172,
      "name": "floatBufferViews",
      "target": 34963
    },
    {
      "buffer": 0,
      "byteLength": 4378480,
      "byteOffset": 1472172,
      "byteStride": 8,
      "name": "floatBufferViews",
      "target": 34962
    },
    {
      "buffer": 0,
      "byteLength": 6898728,
      "byteOffset": 5850652,
      "byteStride": 12,
      "name": "floatBufferViews",
      "target": 34962
    },
    {
      "buffer": 0,
      "byteLength": 1156,
      "byteOffset": 12749380,
      "name": "floatBufferViews"
    },
    {
      "buffer": 0,
      "byteLength": 1884,
      "byteOffset": 12750536,
      "byteStride": 12,
      "name": "floatBufferViews"
    },
    {
      "buffer": 0,
      "byteLength": 2112,
      "byteOffset": 12752420,
      "byteStride": 16,
      "name": "floatBufferViews"
    }
  ],
  "buffers": [
    {
      "byteLength": 12754532,
      "uri": "scene.bin"
    }
  ],
  "extensionsUsed": [
    "KHR_materials_specular"
  ],
  "images": [
    {
      "uri": "textures/vdfgerthg5rer5getfghbb4r5g_baseColor.png"
    },
    {
      "uri": "textures/erdgrtege5rg54erftghnrth5_baseColor.png"
    }
  ],
  "materials": [
    {
      "doubleSided": true,
      "name": "material_0",
      "pbrMetallicRoughness": {
        "metallicFactor": 0.0,
        "roughnessFactor": 0.6
      }
    },
    {
      "doubleSided": true,
      "extensions": {
        "KHR_materials_specular": {
          "specularColorFactor": [
            1.0,
            1.0,
            1.0
          ],
          "specularFactor": 0.0
        }
      },
      "name": "vdfgerthg5rer5getfghbb4r5g",
      "pbrMetallicRoughness": {
        "baseColorTexture": {
          "index": 0
        },
        "roughnessFactor": 0.5
      }
    },
    {
      "doubleSided": true,
      "extensions": {
        "KHR_materials_specular": {
          "specularColorFactor": [
            1.0,
            1.0,
            1.0
          ],
          "specularFactor": 0.0
        }
      },
      "name": "gdfhrfggjtrhuety46366y4ruhfh",
      "pbrMetallicRoughness": {
        "baseColorTexture": {
          "index": 0
        },
        "roughnessFactor": 0.5
      }
    },
    {
      "doubleSided": true,
      "name": "Editable_Brushed__Aluminium",
      "pbrMetallicRoughness": {
        "baseColorFactor": [
          0.341848,
          0.341848,
          0.341848,
          1.0
        ],
        "metallicFactor": 0.95
      }
    },
    {
      "doubleSided": true,
      "extensions": {
        "KHR_materials_specular": {
          "specularColorFactor": [
            1.0,
            1.0,
            1.0
          ],
          "specularFactor": 0.0
        }
      },
      "name": "ggdfhfjry35t636rujfjthrf56thyhy",
      "pbrMetallicRoughness": {
        "baseColorTexture": {
          "index": 0
        },
        "roughnessFactor": 0.5
      }
    },
    {
      "doubleSided": true,
      "extensions": {
        "KHR_materials_specular": {
          "specularColorFactor": [
            1.0,
            1.0,
            1.0
          ],
          "specularFactor": 0.0
        }
      },
      "name": "fhjjkyu4y3tet3wfhfyh56t3e5erth47",
      "pbrMetallicRoughness": {
        "baseColorTexture": {
          "index": 0
        },
        "roughnessFactor": 0.5
      }
    },
    {
      "doubleSided": true,
      "extensions": {
        "KHR_materials_specular": {
          "specularColorFactor": [
            1.0,
            1.0,
            1.0
          ],
          "specularFactor": 0.545455
        }
      },
      "name": "Black_Plastic",
      "pbrMetallicRoughness": {
        "baseColorFactor": [
          0.0,
          0.0,
          0.0,
          1.0
        ],
        "metallicFactor": 0.0
      }
    },
    {
      "doubleSided": true,
      "name": "Procedural_Rubber",
      "pbrMetallicRoughness": {
        "baseColorFactor": [
          0.0414749,
          0.0414749,
          0.0414749,
          1.0
        ],
        "metallicFactor": 0.0,
        "roughnessFactor": 0.502591
      }
    },
    {
      "doubleSided": true,
      "extensions": {
        "KHR_materials_specular": {
          "specularColorFactor": [
            1.0,
            1.0,
            1.0
          ],
          "specularFactor": 0.0
        }
      },
      "name": "dgfgdftjry536536tjrtju564",
      "pbrMetallicRoughness": {
        "baseColorTexture": {
          "index": 0
        },
        "roughnessFactor": 0.5
      }
    },
    {
      "doubleSided": true,
      "extensions": {
        "KHR_materials_specular": {
          "specularColorFactor": [
            1.0,
            1.0,
            1.0
          ],
          "specularFactor": 0.0
        }
      },
      "name": "dtfhrth5rt5e5etrng5re5erh5trhth",
      "pbrMetallicRoughness": {
        "baseColorTexture": {
          "index": 0
        },
        "roughnessFactor": 0.5
      }
    },
    {
      "alphaMode": "BLEND",
      "doubleSided": true,
      "name": "erdgrtege5rg54erftghnrth5",
      "pbrMetallicRoughness": {
        "baseColorTexture": {
          "index": 1
        },
        "roughnessFactor": 0.0836364
      }
    },
    {
      "doubleSided": true,
      "extensions": {
        "KHR_materials_specular": {
          "specularColorFactor": [
            1.0,
            1.0,
            1.0
          ],
          "specularFactor": 0.0
        }
      },
      "name": "tdfgert5h5eh5rt6gfyrt5hhh5h",
      "pbrMetallicRoughness": {
        "baseColorTexture": {
          "index": 0
        },
        "roughnessFactor": 0.5
      }
    },
    {
      "doubleSided": true,
      "extensions": {
        "KHR_materials_specular": {
          "specularColorFactor": [
            1.0,
            1.0,
            1.0
          ],
          "specularFactor": 0.0
        }
      },
      "name": "ftgjtyj7tykjt6u65h6rthj5h5",
      "pbrMetallicRoughness": {
        "baseColorTexture": {
          "index": 0
        },
        "roughnessFactor": 0.5
      }
    },
    {
      "doubleSided": true,
      "name": "display",
      "pbrMetallicRoughness": {
        "baseColorFactor": [
          0.0,
          0.0,
          0.0,
          1.0
        ],
        "metallicFactor": 0.0,
        "roughnessFactor": 0.5
      }
    },
    {
      "doubleSided": true,
      "extensions": {
        "KHR_materials_specular": {
          "specularColorFactor": [
            1.0,
            1.0,
            1.0
          ],
          "specularFactor": 0.0
        }
      },
      "name": "ftyjhty66trjj6rtjtj56trj5rjr",
      "pbrMetallicRoughness": {
        "baseColorTexture": {
          "index": 0
        },
        "roughnessFactor": 0.5
      }
    }
  ],
  "meshes": [
    {
      "name": "Object_0",
      "primitives": [
        {
          "attributes": {
            "NORMAL": 1,
            "POSITION": 0,
            "TEXCOORD_0": 2
          },
          "indices": 3,
          "material": 1,
          "mode": 4
        }
      ]
    },
    {
      "name": "Object_1",
      "primitives": [
        {
          "attributes": {
            "NORMAL": 5,
            "POSITION": 4,
            "TEXCOORD_0": 6
          },
          "indices": 7,
          "material": 2,
          "mode": 4
        }
      ]
    },
    {
      "name": "Object_2",
      "primitives": [
        {
          "attributes": {
            "NORMAL": 9,
            "POSITION": 8,
            "TEXCOORD_0": 10,
            "TEXCOORD_1": 11
          },
          "indices": 12,
          "material": 3,
          "mode": 4
        }
      ]
    },
    {
      "name": "Object_3",
      "primitives": [
        {
          "attributes": {
            "NORMAL": 14,
            "POSITION": 13,
            "TEXCOORD_0": 15
          },
          "indices": 16,
          "material": 4,
          "mode": 4
        }
      ]
    },
    {
      "name": "Object_4",
      "primitives": [
        {
          "attributes": {
            "NORMAL": 18,
            "POSITION": 17,
            "TEXCOORD_0": 19
          },
          "indices": 20,
          "material": 5,
          "mode": 4
        }
      ]
    },
    {
      "name": "Object_5",
      "primitives": [
        {
          "attributes": {
            "NORMAL": 22,
            "POSITION": 21,
            "TEXCOORD_0": 23,
            "TEXCOORD_1": 24
          },
          "indices": 25,
          "material": 6,
          "mode": 4
        }
      ]
    },
    {
      "name": "Object_6",
      "primitives": [
        {
          "attributes": {
            "NORMAL": 27,
            "POSITION": 26,
            "TEXCOORD_0": 28,
            "TEXCOORD_1": 29
          },
          "indices": 30,
          "material": 7,
          "mode": 4
        }
      ]
    },
    {
      "name": "Object_7",
      "primitives": [
        {
          "attributes": {
            "NORMAL": 32,
            "POSITION": 31,
            "TEXCOORD_0": 33,
            "TEXCOORD_1": 34
          },
          "indices": 35,
          "material": 7,
          "mode": 4
        }
      ]
    },
    {
      "name": "Object_8",
      "primitives": [
        {
          "attributes": {
            "NORMAL": 37,
            "POSITION": 36,
            "TEXCOORD_0": 38,
            "TEXCOORD_1": 39
          },
          "indices": 40,
          "material": 7,
          "mode": 4
        }
      ]
    },
    {
      "name": "Object_9",
      "primitives": [
        {
          "attributes": {
            "NORMAL": 42,
            "POSITION": 41,
            "TEXCOORD_0": 43
          },
          "indices": 44,
          "material": 8,
          "mode": 4
        }
      ]
    },
    {
      "name": "Object_10",
      "primitives": [
        {
          "attributes": {
            "NORMAL": 46,
            "POSITION": 45,
            "TEXCOORD_0": 47
          },
          "indices": 48,
          "material": 9,
          "mode": 4
        }
      ]
    },
    {
      "name": "Object_11",
      "primitives": [
        {
          "attributes": {
            "NORMAL": 50,
            "POSITION": 49,
            "TEXCOORD_0": 51
          },
          "indices": 52,
          "material": 10,
          "mode": 4
        }
      ]
    },
    {
      "name": "Object_12",
      "primitives": [
        {
          "attributes": {
            "NORMAL": 54,
            "POSITION": 53,
            "TEXCOORD_0": 55
          },
          "indices": 56,
          "material": 11,
          "mode": 4
        }
      ]
    },
    {
      "name": "Object_13",
      "primitives": [
        {
          "attributes": {
            "NORMAL": 58,
            "POSITION": 57,
            "TEXCOORD_0": 59
          },
          "indices": 60,
          "material": 12,
          "mode": 4
        }
      ]
    },
    {
      "name": "Object_14",
      "primitives": [
        {
          "attributes": {
            "NORMAL": 62,
            "POSITION": 61,
            "TEXCOORD_0": 63
          },
          "indices": 64,
          "material": 13,
          "mode": 4
        }
      ]
    },
    {
      "name": "Object_15",
      "primitives": [
        {
          "attributes": {
            "NORMAL": 66,
            "POSITION": 65,
            "TEXCOORD_0": 67
          },
          "indices": 68,
          "material": 14,
          "mode": 4
        }
      ]
    },
    {
      "name": "Object_16",
      "primitives": [
        {
          "attributes": {
            "NORMAL": 70,
            "POSITION": 69,
            "TEXCOORD_0": 71
          },
          "indices": 72,
          "material": 9,
          "mode": 4
        }
      ]
    },
    {
      "name": "Object_17",
      "primitives": [
        {
          "attributes": {
            "NORMAL": 74,
            "POSITION": 73,
            "TEXCOORD_0": 75,
            "TEXCOORD_1": 76
          },
          "indices": 77,
          "material": 6,
          "mode": 4
        }
      ]
    },
    {
      "name": "Object_18",
      "primitives": [
        {
          "attributes": {
            "NORMAL": 79,
            "POSITION": 78,
            "TEXCOORD_0": 80,
            "TEXCOORD_1": 81
          },
          "indices": 82,
          "material": 6,
          "mode": 4
        }
      ]
    },
    {
      "name": "Object_19",
      "primitives": [
        {
          "attributes": {
            "NORMAL": 84,
            "POSITION": 83,
            "TEXCOORD_0": 85,
            "TEXCOORD_1": 86
          },
          "indices": 87,
          "material": 3,
          "mode": 4
        }
      ]
    },
    {
      "name": "Object_20",
      "primitives": [
        {
          "attributes": {
            "NORMAL": 89,
            "POSITION": 88,
            "TEXCOORD_0": 90,
            "TEXCOORD_1": 91
          },
          "indices": 92,
          "material": 6,
          "mode": 4
        }
      ]
    },
    {
      "name": "Object_21",
      "primitives": [
        {
          "attributes": {
            "NORMAL": 94,
            "POSITION": 93,
            "TEXCOORD_0": 95,
            "TEXCOORD_1": 96
          },
          "indices": 97,
          "material": 6,
          "mode": 4
        }
      ]
    },
    {
      "name": "Object_22",
      "primitives": [
        {
          "attributes": {
            "NORMAL": 99,
            "POSITION": 98,
            "TEXCOORD_0": 100
          },
          "indices": 101,
          "material": 0,
          "mode": 4
        }
      ]
    },
    {
      "name": "Object_23",
      "primitives": [
        {
          "attributes": {
            "NORMAL": 103,
            "POSITION": 102,
            "TEXCOORD_0": 104,
            "TEXCOORD_1": 105
          },
          "indices": 106,
          "material": 6,
          "mode": 4
        }
      ]
    },
    {
      "name": "Object_24",
      "primitives": [
        {
          "attributes": {
            "NORMAL": 108,
            "POSITION": 107,
            "TEXCOORD_0": 109,
            "TEXCOORD_1": 110
          },
          "indices": 111,
          "material": 14,
          "mode": 4
        }
      ]
    },
    {
      "name": "Object_25",
      "primitives": [
        {
          "attributes": {
            "NORMAL": 113,
            "POSITION": 112,
            "TEXCOORD_0": 114,
            "TEXCOORD_1": 115
          },
          "indices": 116,
          "material": 6,
          "mode": 4
        }
      ]
    },
    {
      "name": "Object_26",
      "primitives": [
        {
          "attributes": {
            "NORMAL": 118,
            "POSITION": 117,
            "TEXCOORD_0": 119,
            "TEXCOORD_1": 120
          },
          "indices": 121,
          "material": 3,
          "mode": 4
        }
      ]
    },
    {
      "name": "Object_27",
      "primitives": [
        {
          "attributes": {
            "NORMAL": 123,
            "POSITION": 122,
            "TEXCOORD_0": 124,
            "TEXCOORD_1": 125
          },
          "indices": 126,
          "material": 3,
          "mode": 4
        }
      ]
    }
  ],
  "nodes": [
    {
      "children": [
        1
      ],
      "matrix": [
        1.0,
        0.0,
        0.0,
        0.0,
        0.0,
        2.220446049250313e-16,
        -1.0,
        0.0,
        0.0,
        1.0,
        2.220446049250313e-16,
        0.0,
        0.0,
        0.0,
        0.0,
        1.0
      ],
      "name": "Sketchfab_model"
    },
    {
      "children": [
        2
      ],
      "name": "root"
    },
    {
      "children": [
        3,
        5,
        7,
        9,
        11,
        13,
        15,
        19,
        21,
        23,
        25,
        27,
        29,
        31,
        34,
        36,
        38,
        51,
        53
      ],
      "matrix": [
        1.0,
        0.0,
        0.0,
        0.0,
        0.0,
        2.220446049250313e-16,
        1.0,
        0.0,
        0.0,
        -1.0,
        2.220446049250313e-16,
        0.0,
        0.0,
        0.0,
        0.0,
        1.0
      ],
      "name": "GLTF_SceneRootNode"
    },
    {
      "children": [
        4
      ],
      "matrix": [
        114.26978302001953,
        0.0,
        0.0,
        0.0,
        0.0,
        114.26978302001953,
        0.0,
        0.0,
        0.0,
        0.0,
        114.26978302001953,
        0.0,
        -51.308509826660156,
        48.31242370605469,
        62.953094482421875,
        1.0
      ],
      "name": "Cube_0"
    },
    {
      "mesh": 0,
      "name": "Object_4"
    },
    {
      "children": [
        6
      ],
      "matrix": [
        114.26978302001953,
        0.0,
        0.0,
        0.0,
        0.0,
        114.26978302001953,
        0.0,
        0.0,
        0.0,
        0.0,
        114.26978302001953,
        0.0,
        0.32817748188972473,
        59.08408737182617,
        5.153228759765625,
        1.0
      ],
      "name": "Cube.001_1"
    },
    {
      "mesh": 1,
      "name": "Object_6"
    },
    {
      "children": [
        8
      ],
      "matrix": [
        114.26978302001953,
        0.0,
        0.0,
        0.0,
        0.0,
        114.26978302001953,
        0.0,
        0.0,
        0.0,
        0.0,
        114.26978302001953,
        0.0,
        8.66891860961914,
        97.27202606201172,
        8.90826416015625,
        1.0
      ],
      "name": "Cube.002_2"
    },
    {
      "mesh": 2,
      "name": "Object_8"
    },
    {
      "children": [
        10
      ],
      "matrix": [
        114.26978302001953,
        0.0,
        0.0,
        0.0,
        0.0,
        114.26978302001953,
        0.0,
        0.0,
        0.0,
        0.0,
        114.26978302001953,
        0.0,
        -15.283223152160645,
        92.43052673339844,
        1.067230224609375,
        1.0
      ],
      "name": "Cube.003_3"
    },
    {
      "mesh": 3,
      "name": "Object_10"
    },
    {
      "children": [
        12
      ],
      "matrix": [
        114.26978302001953,
        0.0,
        0.0,
        0.0,
        0.0,
        114.26978302001953,
        0.0,
        0.0,
        0.0,
        0.0,
        114.26978302001953,
        0.0,
        -44.113929748535156,
        50.68608093261719,
        40.66473388671875,
        1.0
      ],
      "name": "Cube.004_4"
    },
    {
      "mesh": 4,
      "name": "Object_12"
    },
    {
      "children": [
        14
      ],
      "matrix": [
        114.26978302001953,
        0.0,
        0.0,
        0.0,
        0.0,
        114.26978302001953,
        0.0,
        0.0,
        0.0,
        0.0,
        114.26978302001953,
        0.0,
        16.158546447753906,
        74.34008026123047,
        4.645599365234375,
        1.0
      ],
      "name": "Cube.005_5"
    },
    {
      "mesh": 5,
      "name": "Object_14"
    },
    {
      "children": [
        16,
        17,
        18
      ],
      "matrix": [
        114.26978302001953,
        0.0,
        0.0,
        0.0,
        0.0,
        114.26978302001953,
        0.0,
        0.0,
        0.0,
        0.0,
        114.26978302001953,
        0.0,
        65.94148254394531,
        53.98662567138672,
        -27.31085205078125,
        1.0
      ],
      "name": "Cube.006_6"
    },
    {
      "mesh": 6,
      "name": "Object_16"
    },
    {
      "mesh": 7,
      "name": "Object_17"
    },
    {
      "mesh": 8,
      "name": "Object_18"
    },
    {
      "children": [
        20
      ],
      "matrix": [
        114.26978302001953,
        0.0,
        0.0,
        0.0,
        0.0,
        114.26978302001953,
        0.0,
        0.0,
        0.0,
        0.0,
        114.26978302001953,
        0.0,
        81.91085052490234,
        54.9715461730957,
        -47.2911376953125,
        1.0
      ],
      "name": "Cube.007_7"
    },
    {
      "mesh": 9,
      "name": "Object_20"
    },
    {
      "children": [
        22
      ],
      "matrix": [
        114.26978302001953,
        0.0,
        0.0,
        0.0,
        0.0,
        114.26978302001953,
        0.0,
        0.0,
        0.0,
        0.0,
        114.26978302001953,
        0.0,
        3.4229674339294434,
        106.91018676757813,
        16.234344482421875,
        1.0
      ],
      "name": "Cube.008_8"
    },
    {
      "mesh": 10,
      "name": "Object_22"
    },
    {
      "children": [
        24
      ],
      "matrix": [
        114.26978302001953,
        0.0,
        0.0,
        0.0,
        0.0,
        114.26978302001953,
        0.0,
        0.0,
        0.0,
        0.0,
        114.26978302001953,
        0.0,
        18.56919288635254,
        91.36187744140625,
        14.68731689453125,
        1.0
      ],
      "name": "Cube.009_9"
    },
    {
      "mesh": 11,
      "name": "Object_24"
    },
    {
      "children": [
        26
      ],
      "matrix": [
        114.26978302001953,
        0.0,
        0.0,
        0.0,
        0.0,
        114.26978302001953,
        0.0,
        0.0,
        0.0,
        0.0,
        114.26978302001953,
        0.0,
        -51.32797622680664,
        48.45161819458008,
        63.390045166015625,
        1.0
      ],
      "name": "Cube.011_10"
    },
    {
      "mesh": 12,
      "name": "Object_26"
    },
    {
      "children": [
        28
      ],
      "matrix": [
        114.26978302001953,
        0.0,
        0.0,
        0.0,
        0.0,
        114.26978302001953,
        0.0,
        0.0,
        0.0,
        0.0,
        114.26978302001953,
        0.0,
        -7.8992109298706055,
        43.345550537109375,
        12.1461181640625,
        1.0
      ],
      "name": "Cube.012_11"
    },
    {
      "mesh": 13,
      "name": "Object_28"
    },
    {
      "children": [
        30
      ],
      "matrix": [
        114.26978302001953,
        0.0,
        0.0,
        0.0,
        0.0,
        114.26978302001953,
        0.0,
        0.0,
        0.0,
        0.0,
        114.26978302001953,
        0.0,
        76.35687255859375,
        69.2445068359375,
        -62.608524322509766,
        1.0
      ],
      "name": "Cube.014_12"
    },
    {
      "mesh": 14,
      "name": "Object_30"
    },
    {
      "children": [
        32,
        33
      ],
      "name": "Cube.015_13",
      "scale": [
        114.26978302001953,
        114.26978302001953,
        114.26978302001953
      ],
      "translation": [
        7.596140384674072,
        107.58868408203125,
        14.949798583984375
      ]
    },
    {
      "mesh": 15,
      "name": "Object_32"
    },
    {
      "mesh": 16,
      "name": "Object_33"
    },
    {
      "children": [
        35
      ],
      "matrix": [
        114.26978302001953,
        0.0,
        0.0,
        0.0,
        0.0,
        114.26978302001953,
        0.0,
        0.0,
        0.0,
        0.0,
        114.26978302001953,
        0.0,
        16.158546447753906,
        74.34008026123047,
        4.645599365234375,
        1.0
      ],
      "name": "Cube.016_14"
    },
    {
      "mesh": 17,
      "name": "Object_35"
    },
    {
      "children": [
        37
      ],
      "matrix": [
        114.26978302001953,
        0.0,
        0.0,
        0.0,
        0.0,
        114.26978302001953,
        0.0,
        0.0,
        0.0,
        0.0,
        114.26978302001953,
        0.0,
        16.158546447753906,
        74.34008026123047,
        4.645599365234375,
        1.0
      ],
      "name": "Cube.017_15"
    },
    {
      "mesh": 18,
      "name": "Object_37"
    },
    {
      "children": [
        39,
        40,
        46,
        49
      ],
      "name": "Cube.019_21",
      "scale": [
        114.26978302001953,
        114.26978302001953,
        114.26978302001953
      ],
      "translation": [
        8.66891860961914,
        97.27202606201172,
        8.90826416015625
      ]
    },
    {
      "mesh": 19,
      "name": "Object_39"
    },
    {
      "children": [
        41,
        42,
        44
      ],
      "name": "Cube.013_18",
      "translation": [
        0.06554338335990906,
        -0.20068246126174927,
        -0.037303533405065536
      ]
    },
    {
      "mesh": 20,
      "name": "Object_41"
    },
    {
      "children": [
        43
      ],
      "matrix": [
        1.0,
        0.0,
        0.0,
        0.0,
        0.0,
        1.0,
        0.0,
        0.0,
        0.0,
        0.0,
        1.0,
        0.0,
        0.0,
        -0.006666302680969238,
        0.0,
        1.0
      ],
      "name": "Cube.020_16"
    },
    {
      "mesh": 21,
      "name": "Object_43"
    },
    {
      "children": [
        45
      ],
      "name": "Cylinder_17",
      "scale": [
        0.0024319561198353767,
        0.04282178357243538,
        0.0024319561198353767
      ],
      "translation": [
        -0.17425711452960968,
        0.1898704171180725,
        0.0668339729309082
      ]
    },
    {
      "mesh": 22,
      "name": "Object_45"
    },
    {
      "children": [
        47,
        48
      ],
      "matrix": [
        1.0,
        0.0,
        0.0,
        0.0,
        0.0,
        1.0,
        0.0,
        0.0,
        0.0,
        0.0,
        1.0,
        0.0,
        0.06554338335990906,
        -0.20068246126174927,
        -0.037303533405065536,
        1.0
      ],
      "name": "Cube.018_19"
    },
    {
      "mesh": 23,
      "name": "Object_47"
    },
    {
      "mesh": 24,
      "name": "Object_48"
    },
    {
      "children": [
        50
      ],
      "matrix": [
        1.0,
        0.0,
        0.0,
        0.0,
        0.0,
        1.0,
        0.0,
        0.0,
        0.0,
        0.0,
        1.0,
        0.0,
        0.06554338335990906,
        -0.20068246126174927,
        -0.037303533405065536,
        1.0
      ],
      "name": "Cube.023_20"
    },
    {
      "mesh": 25,
      "name": "Object_50"
    },
    {
      "children": [
        52
      ],
      "matrix": [
        114.26978302001953,
        0.0,
        0.0,
        0.0,
        0.0,
        114.26978302001953,
        0.0,
        0.0,
        0.0,
        0.0,
        114.26978302001953,
        0.0,
        8.66891860961914,
        97.27202606201172,
        8.90826416015625,
        1.0
      ],
      "name": "Cube.021_22"
    },
    {
      "mesh": 26,
      "name": "Object_52"
    },
    {
      "children": [
        54
      ],
      "matrix": [
        114.26978302001953,
        0.0,
        0.0,
        0.0,
        0.0,
        114.26978302001953,
        0.0,
        0.0,
        0.0,
        0.0,
        114.26978302001953,
        0.0,
        8.66891860961914,
        97.27202606201172,
        8.90826416015625,
        1.0
      ],
      "name": "Cube.022_23"
    },
    {
      "mesh": 27,
      "name": "Object_54"
    }
  ],
  "samplers": [
    {
      "magFilter": 9729,
      "minFilter": 9987,
      "wrapS": 10497,
      "wrapT": 10497
    }
  ],
  "scene": 0,
  "scenes": [
    {
      "name": "Sketchfab_Scene",
      "nodes": [
        0
      ]
    }
  ],
  "textures": [
    {
      "sampler": 0,
      "source": 0
    },
    {
      "sampler": 0,
      "source": 1
    }
  ]
}
